<svg width="42" height="44" viewBox="0 0 42 44" fill="none" xmlns="http://www.w3.org/2000/svg">
<path d="M41.3749 20.6061V20.469C41.375 20.463 41.3739 20.4571 41.3716 20.4515C41.3694 20.446 41.366 20.4409 41.3617 20.4367C41.3574 20.4325 41.3524 20.4293 41.3468 20.4271C41.3412 20.4249 41.3352 20.4239 41.3292 20.4241C41.2835 20.4241 41.3292 20.3785 41.2835 20.3785L41.2378 20.3328V20.2871L41.193 20.2414L41.1473 20.1957C41.1412 20.1958 41.1352 20.1947 41.1297 20.1924C41.1241 20.1902 41.119 20.1868 41.1147 20.1826C41.1104 20.1783 41.1071 20.1732 41.1048 20.1676C41.1026 20.162 41.1015 20.156 41.1016 20.15C41.1016 20.1051 41.0559 20.15 41.0559 20.1051H40.8739H35.1154V14.9414L35.024 14.8508L18.2094 0.137063C18.0994 0.0483172 17.9623 -8.39233e-05 17.821 -8.39233e-05C17.6797 -8.39233e-05 17.5426 0.0483172 17.4326 0.137063L0.706897 14.8492L0.616333 14.9397V37.6924C0.647062 37.7221 0.677255 37.7523 0.706897 37.783L0.752586 37.8287V37.8744L0.843966 37.9658C0.849997 37.9657 0.855988 37.9668 0.861581 37.969C0.867174 37.9713 0.872255 37.9746 0.87652 37.9789C0.880785 37.9832 0.884146 37.9883 0.886403 37.9938C0.88866 37.9994 0.889766 38.0054 0.889656 38.0115C0.889656 38.0563 0.935345 38.0115 0.935345 38.0563C0.935345 38.1012 0.981036 38.0563 0.981036 38.0563H1.11729H6.78446V42.99C6.81437 43.0207 6.84456 43.0512 6.87502 43.0814C6.88101 43.0812 6.88698 43.0822 6.89257 43.0843C6.89817 43.0865 6.90325 43.0898 6.90753 43.094C6.91181 43.0982 6.91518 43.1032 6.91745 43.1088C6.91971 43.1143 6.92082 43.1203 6.92071 43.1263V43.172L6.9664 43.2177C6.97243 43.2175 6.97842 43.2186 6.98401 43.2209C6.98961 43.2232 6.99469 43.2265 6.99895 43.2308C7.00322 43.2351 7.00658 43.2401 7.00884 43.2457C7.01109 43.2513 7.0122 43.2573 7.01209 43.2633C7.05778 43.2633 7.05778 43.309 7.10347 43.309H7.14916C7.19485 43.309 7.19485 43.3547 7.24054 43.3547H40.9621C40.9681 43.3548 40.9741 43.3537 40.9797 43.3515C40.9853 43.3492 40.9903 43.3458 40.9946 43.3416C40.9989 43.3373 41.0022 43.3322 41.0045 43.3266C41.0068 43.321 41.0079 43.3151 41.0077 43.309C41.0077 43.2633 41.0534 43.309 41.0534 43.2633L41.1448 43.172V43.1263L41.1905 43.0814C41.1904 43.0754 41.1915 43.0695 41.1937 43.064C41.1959 43.0584 41.1992 43.0534 41.2034 43.0491C41.2075 43.0449 41.2125 43.0415 41.218 43.0392C41.2235 43.0369 41.2294 43.0357 41.2354 43.0357C41.2811 43.0357 41.2354 42.99 41.2811 42.99C41.3268 42.99 41.2811 42.9443 41.2811 42.9443V42.8073L41.3749 20.6061ZM39.1818 21.2457L35.1154 24.8552V21.2457H39.1818ZM2.72133 36.8717L13.7358 27.1854L17.4791 30.4784C17.5951 30.5699 17.7393 30.6184 17.8871 30.6154C18.0337 30.6115 18.1758 30.5638 18.295 30.4784L22.0416 27.1887L33.0561 36.8749L2.72133 36.8717ZM22.8738 26.363L33.9732 16.5854V36.1406L22.8738 26.363ZM17.8479 29.1958L2.72133 15.8544H33.0137L17.8479 29.1958ZM1.71615 16.5854L12.8188 26.363L1.71615 36.1406V16.5854ZM17.8447 1.37069L32.968 14.7121H2.72133L17.8447 1.37069ZM7.97892 38.0596H11.9082L7.97892 41.532V38.0596ZM8.9384 42.2206L13.6901 38.0596H34.479L39.2307 42.2206H8.9384ZM40.187 41.4863L35.1154 37.0055V26.363L40.187 21.8854V41.4863Z" fill="white"/>
</svg>
