<svg width="54" height="46" viewBox="0 0 54 46" fill="none" xmlns="http://www.w3.org/2000/svg">
<path d="M52.5478 40.3343H50.8985V36.8422C50.8987 36.7769 50.8861 36.7121 50.8612 36.6516C50.8363 36.5911 50.7997 36.5361 50.7535 36.4899C50.7073 36.4436 50.6525 36.4069 50.592 36.3819C50.5316 36.3569 50.4668 36.3441 50.4014 36.3442H46.4722V21.6991H47.5164C47.6487 21.6988 47.7754 21.6461 47.869 21.5526C47.9625 21.4591 48.0152 21.3323 48.0154 21.2001V17.9771C48.0153 17.9117 48.0023 17.847 47.9771 17.7866C47.952 17.7262 47.9152 17.6714 47.8689 17.6252C47.8225 17.5791 47.7675 17.5425 47.7071 17.5176C47.6466 17.4927 47.5818 17.4799 47.5164 17.4801H39.0588V16.1265C39.0592 16.0413 39.0376 15.9576 38.9959 15.8833C38.9542 15.8091 38.894 15.747 38.8211 15.7031L27.224 8.56273C27.1615 8.5243 27.0958 8.49143 27.0275 8.4645V6.19047C27.4008 5.91542 28.4578 5.3614 29.9401 6.37023C30.6925 6.87808 31.444 7.05784 32.1994 6.89183C33.4881 6.60893 34.2406 5.38793 34.274 5.34176C34.3211 5.26384 34.3459 5.17447 34.3457 5.08341V0.49606C34.3454 0.387705 34.3098 0.282401 34.2442 0.196123C34.1787 0.109844 34.0868 0.0472977 33.9825 0.0179706C33.8782 -0.0113566 33.7671 -0.00586424 33.6662 0.0336147C33.5653 0.0730936 33.48 0.144405 33.4233 0.236732C33.4164 0.245572 32.8555 1.14438 31.9823 1.33003C31.5117 1.42827 31.0147 1.30449 30.5088 0.957742C28.5079 -0.404712 26.8065 0.400777 26.1867 1.01668C26.0929 1.11056 26.04 1.23763 26.0393 1.37031V8.46843C25.9714 8.49592 25.9057 8.52877 25.8429 8.56666L14.233 15.7001C14.1605 15.7441 14.1005 15.8061 14.059 15.8801C14.0175 15.9542 13.9959 16.0377 13.9963 16.1225V17.4771H5.53181C5.40101 17.4787 5.27609 17.5317 5.18415 17.6248C5.0922 17.7178 5.04065 17.8434 5.04066 17.9742V21.1971C5.04053 21.2626 5.05331 21.3275 5.07828 21.388C5.10325 21.4485 5.13992 21.5036 5.18618 21.5499C5.23244 21.5963 5.28738 21.633 5.34787 21.6581C5.40836 21.6832 5.4732 21.6961 5.53868 21.6961H6.5868V36.3442H2.65759C2.5255 36.3442 2.39883 36.3967 2.30543 36.4901C2.21203 36.5835 2.15956 36.7102 2.15956 36.8422V40.3343H0.506346C0.440708 40.3337 0.375593 40.3461 0.314775 40.3708C0.253957 40.3955 0.198647 40.432 0.152048 40.4782C0.10545 40.5245 0.0684911 40.5795 0.0433131 40.6401C0.0181352 40.7007 0.00523891 40.7657 0.00537212 40.8314V44.7606C0.00524295 44.8261 0.0180295 44.8909 0.0429999 44.9515C0.0679703 45.012 0.104634 45.067 0.150893 45.1134C0.197152 45.1597 0.252098 45.1965 0.312585 45.2216C0.373073 45.2467 0.437915 45.2596 0.5034 45.2596H52.5478C52.6132 45.2596 52.6781 45.2467 52.7386 45.2216C52.7991 45.1965 52.854 45.1597 52.9003 45.1134C52.9465 45.067 52.9832 45.012 53.0082 44.9515C53.0331 44.8909 53.0459 44.8261 53.0458 44.7606V40.8314C53.0459 40.766 53.0331 40.7012 53.0081 40.6408C52.9831 40.5804 52.9464 40.5255 52.9002 40.4793C52.8539 40.4331 52.7989 40.3965 52.7384 40.3716C52.6779 40.3467 52.6132 40.3341 52.5478 40.3343ZM27.0256 1.59624C27.3988 1.32218 28.4558 0.768158 29.9381 1.77698C30.6847 2.28582 31.442 2.46459 32.1974 2.2976C32.6167 2.20197 33.0097 2.01517 33.3487 1.75046V4.93214C33.1699 5.17673 32.6728 5.77299 31.9793 5.92034C31.5137 6.01857 31.0127 5.89578 30.5059 5.54804C29.6994 4.99992 28.943 4.80248 28.2868 4.80248C27.8559 4.80158 27.4292 4.88779 27.0324 5.05591L27.0256 1.59624ZM45.486 36.3442H39.0598V21.6991H45.486V36.3442ZM47.0243 18.4732V20.704H39.0588V18.4732H47.0243ZM14.9933 16.3976L26.3527 9.4134C26.4054 9.38179 26.4661 9.36578 26.5275 9.36724C26.5879 9.36726 26.647 9.38392 26.6985 9.41537L38.0627 16.3995V36.3452H36.5647V24.6244C36.5647 24.2665 36.4942 23.9122 36.3573 23.5816C36.2204 23.251 36.0196 22.9506 35.7666 22.6976C35.5136 22.4445 35.2132 22.2438 34.8826 22.1069C34.552 21.9699 34.1976 21.8995 33.8398 21.8995C33.482 21.8995 33.1276 21.9699 32.797 22.1069C32.4664 22.2438 32.166 22.4445 31.913 22.6976C31.66 22.9506 31.4593 23.251 31.3223 23.5816C31.1854 23.9122 31.1149 24.2665 31.1149 24.6244V36.3452H29.5137V23.1892C29.5209 22.7926 29.449 22.3985 29.3022 22.0299C29.1554 21.6614 28.9366 21.3258 28.6587 21.0427C28.3807 20.7597 28.0491 20.5349 27.6833 20.3814C27.3175 20.2279 26.9247 20.1489 26.528 20.1489C26.1313 20.1489 25.7386 20.2279 25.3728 20.3814C25.0069 20.5349 24.6754 20.7597 24.3974 21.0427C24.1195 21.3258 23.9007 21.6614 23.7539 22.0299C23.607 22.3985 23.5351 22.7926 23.5423 23.1892V36.3452H21.9402V24.6244C21.9402 23.9017 21.6531 23.2086 21.1421 22.6976C20.6311 22.1865 19.938 21.8995 19.2153 21.8995C18.4926 21.8995 17.7995 22.1865 17.2885 22.6976C16.7775 23.2086 16.4904 23.9017 16.4904 24.6244V36.3452H14.9933V16.3976ZM32.1149 36.3452V24.6244C32.1094 24.3939 32.15 24.1647 32.2344 23.9502C32.3188 23.7357 32.4452 23.5403 32.6063 23.3753C32.7673 23.2104 32.9597 23.0794 33.1721 22.9899C33.3846 22.9004 33.6127 22.8543 33.8432 22.8543C34.0737 22.8543 34.3019 22.9004 34.5144 22.9899C34.7268 23.0794 34.9192 23.2104 35.0802 23.3753C35.2412 23.5403 35.3677 23.7357 35.4521 23.9502C35.5365 24.1647 35.5771 24.3939 35.5716 24.6244V36.3452H32.1149ZM24.5413 36.3452V23.1892C24.5667 22.6791 24.7872 22.1983 25.1572 21.8463C25.5271 21.4942 26.0183 21.2979 26.529 21.2979C27.0397 21.2979 27.5309 21.4942 27.9009 21.8463C28.2709 22.1983 28.4913 22.6791 28.5167 23.1892V36.3452H24.5413ZM17.4904 36.3452V24.6244C17.4904 24.1658 17.6725 23.7261 17.9967 23.4019C18.321 23.0777 18.7607 22.8955 19.2192 22.8955C19.6777 22.8955 20.1175 23.0777 20.4417 23.4019C20.7659 23.7261 20.9481 24.1658 20.9481 24.6244V36.3452H17.4904ZM6.0318 18.4742H13.9973V20.704H6.0318V18.4742ZM7.575 21.6971H13.9973V36.3452H7.57401L7.575 21.6971ZM3.14874 37.3413H49.9063V40.3353H3.14874V37.3413ZM52.0507 44.2685H1.00536V41.3314H52.0507V44.2685Z" fill="white"/>
<path d="M43.2758 27.6184C43.3412 27.6184 43.4059 27.6055 43.4664 27.5805C43.5268 27.5555 43.5817 27.5188 43.6279 27.4726C43.6742 27.4263 43.7109 27.3714 43.7359 27.311C43.7609 27.2506 43.7738 27.1858 43.7738 27.1204V24.9102C43.7767 24.8429 43.7661 24.7757 43.7424 24.7125C43.7188 24.6494 43.6827 24.5917 43.6363 24.5428C43.5663 24.4691 43.4754 24.4186 43.3758 24.3981C43.2762 24.3775 43.1727 24.3879 43.0793 24.4279C42.9858 24.4679 42.9068 24.5356 42.8529 24.6218C42.799 24.708 42.7728 24.8087 42.7778 24.9102V27.1204C42.7778 27.1858 42.7906 27.2506 42.8157 27.311C42.8407 27.3714 42.8774 27.4263 42.9236 27.4726C42.9699 27.5188 43.0248 27.5555 43.0852 27.5805C43.1456 27.6055 43.2104 27.6184 43.2758 27.6184Z" fill="white"/>
<path d="M41.2621 27.6184C41.3941 27.6182 41.5205 27.5655 41.6137 27.4721C41.6601 27.4261 41.6969 27.3713 41.7219 27.3109C41.7468 27.2505 41.7595 27.1857 41.7591 27.1204V24.9102C41.7621 24.843 41.7514 24.7759 41.7278 24.7129C41.7041 24.65 41.668 24.5925 41.6215 24.5439C41.575 24.4952 41.5191 24.4566 41.4573 24.4301C41.3954 24.4037 41.3288 24.3901 41.2616 24.3901C41.1943 24.3901 41.1277 24.4037 41.0659 24.4301C41.004 24.4566 40.9482 24.4952 40.9017 24.5439C40.8552 24.5925 40.819 24.65 40.7954 24.7129C40.7717 24.7759 40.7611 24.843 40.764 24.9102V27.1204C40.764 27.2525 40.8165 27.3792 40.9099 27.4726C41.0033 27.566 41.13 27.6184 41.2621 27.6184Z" fill="white"/>
<path d="M43.2758 33.6301C43.3413 33.6301 43.4061 33.6172 43.4666 33.5921C43.5271 33.567 43.5821 33.5303 43.6283 33.4839C43.6746 33.4376 43.7112 33.3825 43.7362 33.322C43.7612 33.2615 43.774 33.1966 43.7738 33.1311V30.9219C43.7781 30.8539 43.7684 30.7857 43.7453 30.7216C43.7222 30.6574 43.6862 30.5987 43.6396 30.549C43.5929 30.4993 43.5365 30.4597 43.474 30.4326C43.4114 30.4056 43.344 30.3916 43.2758 30.3916C43.2076 30.3916 43.1402 30.4056 43.0776 30.4326C43.0151 30.4597 42.9587 30.4993 42.9121 30.549C42.8654 30.5987 42.8294 30.6574 42.8063 30.7216C42.7832 30.7857 42.7735 30.8539 42.7778 30.9219V33.1331C42.778 33.265 42.8306 33.3914 42.924 33.4846C43.0174 33.5778 43.1439 33.6301 43.2758 33.6301Z" fill="white"/>
<path d="M41.2621 33.6301C41.3941 33.6299 41.5205 33.5772 41.6137 33.4838C41.6603 33.4376 41.6971 33.3827 41.7221 33.3221C41.747 33.2616 41.7596 33.1966 41.7591 33.1311V30.9219C41.7621 30.8547 41.7514 30.7876 41.7278 30.7246C41.7041 30.6617 41.668 30.6041 41.6215 30.5555C41.575 30.5069 41.5191 30.4682 41.4573 30.4418C41.3954 30.4154 41.3288 30.4018 41.2616 30.4018C41.1943 30.4018 41.1277 30.4154 41.0659 30.4418C41.004 30.4682 40.9482 30.5069 40.9017 30.5555C40.8552 30.6041 40.819 30.6617 40.7954 30.7246C40.7717 30.7876 40.7611 30.8547 40.764 30.9219V33.1331C40.7643 33.265 40.8169 33.3914 40.9103 33.4846C41.0036 33.5778 41.1302 33.6301 41.2621 33.6301Z" fill="white"/>
<path d="M9.77926 24.4122C9.64717 24.4122 9.5205 24.4647 9.4271 24.5581C9.3337 24.6515 9.28123 24.7781 9.28123 24.9102V27.1204C9.27832 27.1877 9.28899 27.255 9.31262 27.3181C9.33625 27.3812 9.37234 27.4389 9.41875 27.4878C9.48877 27.5615 9.57968 27.612 9.67926 27.6326C9.77883 27.6531 9.88231 27.6427 9.97579 27.6027C10.0693 27.5627 10.1483 27.495 10.2022 27.4088C10.256 27.3226 10.2823 27.2219 10.2773 27.1204V24.9102C10.2773 24.7781 10.2248 24.6515 10.1314 24.5581C10.038 24.4647 9.91134 24.4122 9.77926 24.4122Z" fill="white"/>
<path d="M11.793 24.4122C11.661 24.4124 11.5345 24.4651 11.4413 24.5585C11.3949 24.6045 11.3582 24.6593 11.3332 24.7197C11.3082 24.7801 11.2956 24.8449 11.296 24.9102V27.1204C11.293 27.1876 11.3036 27.2547 11.3273 27.3177C11.3509 27.3806 11.3871 27.4382 11.4336 27.4868C11.4801 27.5354 11.536 27.574 11.5978 27.6005C11.6597 27.6269 11.7262 27.6405 11.7935 27.6405C11.8608 27.6405 11.9273 27.6269 11.9892 27.6005C12.051 27.574 12.1069 27.5354 12.1534 27.4868C12.1999 27.4382 12.2361 27.3806 12.2597 27.3177C12.2834 27.2547 12.294 27.1876 12.291 27.1204V24.9102C12.291 24.7781 12.2386 24.6515 12.1452 24.5581C12.0518 24.4647 11.9251 24.4122 11.793 24.4122Z" fill="white"/>
<path d="M9.77926 30.4239C9.71378 30.4236 9.64891 30.4363 9.58837 30.4613C9.52783 30.4862 9.47282 30.5229 9.42652 30.5692C9.38022 30.6155 9.34355 30.6705 9.31861 30.731C9.29368 30.7916 9.28097 30.8564 9.28123 30.9219V33.1331C9.27832 33.2004 9.28899 33.2676 9.31262 33.3308C9.33625 33.3939 9.37234 33.4516 9.41875 33.5005C9.48877 33.5742 9.57968 33.6247 9.67926 33.6452C9.77883 33.6658 9.88231 33.6553 9.97579 33.6153C10.0693 33.5753 10.1483 33.5077 10.2022 33.4215C10.256 33.3353 10.2823 33.2346 10.2773 33.1331V30.9219C10.2773 30.7898 10.2248 30.6631 10.1314 30.5697C10.038 30.4764 9.91134 30.4239 9.77926 30.4239Z" fill="white"/>
<path d="M11.793 30.4239C11.6612 30.4243 11.5349 30.4765 11.4413 30.5693C11.3948 30.6154 11.358 30.6703 11.333 30.7309C11.3081 30.7915 11.2955 30.8564 11.296 30.9219V33.1331C11.293 33.2003 11.3036 33.2674 11.3273 33.3303C11.3509 33.3933 11.3871 33.4508 11.4336 33.4994C11.4801 33.548 11.536 33.5867 11.5978 33.6132C11.6597 33.6396 11.7262 33.6532 11.7935 33.6532C11.8608 33.6532 11.9273 33.6396 11.9892 33.6132C12.051 33.5867 12.1069 33.548 12.1534 33.4994C12.1999 33.4508 12.2361 33.3933 12.2597 33.3303C12.2834 33.2674 12.294 33.2003 12.291 33.1331V30.9219C12.291 30.7898 12.2386 30.6632 12.1452 30.5698C12.0518 30.4764 11.9251 30.4239 11.793 30.4239Z" fill="white"/>
<path d="M26.5275 19.039C27.1854 19.0396 27.8232 18.812 28.3321 18.395C28.8409 17.978 29.1894 17.3974 29.3181 16.7522C29.4468 16.107 29.3477 15.4372 29.0377 14.8569C28.7278 14.2765 28.2261 13.8217 27.6183 13.5699C27.0105 13.3181 26.3342 13.2849 25.7046 13.476C25.0751 13.667 24.5313 14.0705 24.166 14.6177C23.8007 15.1649 23.6364 15.8218 23.7013 16.4765C23.7662 17.1312 24.0561 17.7431 24.5217 18.208C25.0538 18.7397 25.7752 19.0386 26.5275 19.039ZM26.5275 14.3554C26.9545 14.3547 27.3684 14.5021 27.6988 14.7725C28.0292 15.0429 28.2555 15.4195 28.3393 15.8382C28.4231 16.2568 28.359 16.6915 28.1581 17.0682C27.9573 17.4449 27.6319 17.7403 27.2376 17.9039C26.8433 18.0676 26.4045 18.0895 25.9959 17.9658C25.5873 17.8421 25.2342 17.5805 24.9969 17.2256C24.7596 16.8707 24.6527 16.4445 24.6945 16.0196C24.7363 15.5947 24.9241 15.1975 25.226 14.8956C25.5711 14.5502 26.0392 14.3559 26.5275 14.3554Z" fill="white"/>
</svg>
